<?xml version="1.0" encoding="UTF-8" standalone="no"?>
<!DOCTYPE svg PUBLIC "-//W3C//DTD SVG 1.1//EN" "http://www.w3.org/Graphics/SVG/1.1/DTD/svg11.dtd">
<svg xmlns="http://www.w3.org/2000/svg" version="1.1" viewBox="0.00 0.00 1868.00 1121.00">
<g stroke-width="2.00" fill="none" stroke-linecap="butt">
<path stroke="#808080" vector-effect="non-scaling-stroke" d="
  M 1868.00 736.59
  Q 1845.19 745.48 1829.33 756.34
  C 1809.13 770.16 1790.15 783.48 1767.10 792.42
  C 1730.32 806.68 1692.98 804.83 1657.68 788.23
  C 1636.85 778.43 1621.23 764.19 1602.77 752.00
  C 1561.49 724.75 1514.07 720.07 1468.55 739.63
  C 1445.47 749.55 1428.58 762.22 1409.20 775.18
  Q 1391.87 786.77 1367.59 794.87
  C 1333.53 806.22 1299.81 803.85 1267.45 789.22
  C 1248.10 780.46 1230.91 766.39 1217.24 756.53
  C 1162.08 716.76 1100.14 719.60 1044.24 756.77
  Q 1032.26 764.74 1020.30 772.73
  C 977.63 801.23 927.49 812.01 878.90 790.87
  Q 858.92 782.18 844.45 771.04
  C 817.22 750.06 790.06 732.03 754.85 728.35
  C 716.16 724.30 679.77 737.47 648.21 759.23
  C 627.79 773.31 610.04 785.07 587.56 793.32
  C 551.10 806.72 514.60 804.41 479.97 787.86
  C 461.77 779.16 445.46 765.50 432.30 756.21
  C 396.12 730.69 353.69 720.29 310.30 733.01
  Q 281.08 741.57 255.87 759.10
  C 233.69 774.54 213.77 787.61 188.76 795.53
  Q 139.83 811.04 92.73 789.96
  Q 70.77 780.13 55.41 767.84
  Q 28.45 746.24 0.00 734.75"
/>
<path stroke="#670317" vector-effect="non-scaling-stroke" d="
  M 1152.63 378.85
  A 217.78 217.78 0.0 0 0 934.85 161.07
  A 217.78 217.78 0.0 0 0 717.07 378.85
  A 217.78 217.78 0.0 0 0 934.85 596.63
  A 217.78 217.78 0.0 0 0 1152.63 378.85"
/>
<path stroke="#808080" vector-effect="non-scaling-stroke" d="
  M 1868.00 896.23
  Q 1846.67 904.35 1827.81 917.09
  C 1810.79 928.59 1795.48 939.52 1775.55 948.27
  Q 1713.63 975.45 1654.75 945.75
  C 1636.79 936.69 1622.70 924.54 1608.17 914.34
  C 1570.04 887.59 1524.48 878.88 1479.92 894.69
  Q 1455.62 903.30 1434.35 917.88
  C 1417.36 929.53 1404.10 938.71 1386.78 946.81
  C 1337.90 969.67 1287.10 964.93 1243.15 934.02
  Q 1229.99 924.77 1216.95 915.35
  C 1175.05 885.06 1124.49 877.85 1076.60 898.75
  C 1056.62 907.47 1042.68 917.24 1022.58 931.07
  C 982.08 958.93 933.96 969.82 887.13 953.11
  C 864.44 945.02 846.83 931.52 827.97 917.56
  C 789.36 888.99 744.48 878.57 698.05 893.90
  Q 672.32 902.40 649.95 917.70
  Q 639.84 924.61 629.68 931.42
  C 592.22 956.53 547.05 969.32 502.60 955.64
  Q 476.31 947.54 454.01 930.95
  Q 437.50 918.67 431.69 914.56
  C 386.19 882.40 333.29 878.02 283.19 902.95
  C 264.46 912.28 244.80 926.79 232.42 934.65
  Q 203.35 953.12 172.76 959.02
  C 134.07 966.49 93.67 954.99 61.95 931.30
  C 52.63 924.34 42.56 916.35 33.64 910.75
  Q 17.68 900.73 0.00 894.04"
/>
</g>
<path fill="#000000" d="
  M 0.00 0.00
  L 1868.00 0.00
  L 1868.00 736.59
  Q 1845.19 745.48 1829.33 756.34
  C 1809.13 770.16 1790.15 783.48 1767.10 792.42
  C 1730.32 806.68 1692.98 804.83 1657.68 788.23
  C 1636.85 778.43 1621.23 764.19 1602.77 752.00
  C 1561.49 724.75 1514.07 720.07 1468.55 739.63
  C 1445.47 749.55 1428.58 762.22 1409.20 775.18
  Q 1391.87 786.77 1367.59 794.87
  C 1333.53 806.22 1299.81 803.85 1267.45 789.22
  C 1248.10 780.46 1230.91 766.39 1217.24 756.53
  C 1162.08 716.76 1100.14 719.60 1044.24 756.77
  Q 1032.26 764.74 1020.30 772.73
  C 977.63 801.23 927.49 812.01 878.90 790.87
  Q 858.92 782.18 844.45 771.04
  C 817.22 750.06 790.06 732.03 754.85 728.35
  C 716.16 724.30 679.77 737.47 648.21 759.23
  C 627.79 773.31 610.04 785.07 587.56 793.32
  C 551.10 806.72 514.60 804.41 479.97 787.86
  C 461.77 779.16 445.46 765.50 432.30 756.21
  C 396.12 730.69 353.69 720.29 310.30 733.01
  Q 281.08 741.57 255.87 759.10
  C 233.69 774.54 213.77 787.61 188.76 795.53
  Q 139.83 811.04 92.73 789.96
  Q 70.77 780.13 55.41 767.84
  Q 28.45 746.24 0.00 734.75
  L 0.00 0.00
  Z
  M 1152.63 378.85
  A 217.78 217.78 0.0 0 0 934.85 161.07
  A 217.78 217.78 0.0 0 0 717.07 378.85
  A 217.78 217.78 0.0 0 0 934.85 596.63
  A 217.78 217.78 0.0 0 0 1152.63 378.85
  Z"
/>
<circle fill="#ce062e" cx="934.85" cy="378.85" r="217.78"/>
<path fill="#ffffff" d="
  M 1868.00 736.59
  L 1868.00 896.23
  Q 1846.67 904.35 1827.81 917.09
  C 1810.79 928.59 1795.48 939.52 1775.55 948.27
  Q 1713.63 975.45 1654.75 945.75
  C 1636.79 936.69 1622.70 924.54 1608.17 914.34
  C 1570.04 887.59 1524.48 878.88 1479.92 894.69
  Q 1455.62 903.30 1434.35 917.88
  C 1417.36 929.53 1404.10 938.71 1386.78 946.81
  C 1337.90 969.67 1287.10 964.93 1243.15 934.02
  Q 1229.99 924.77 1216.95 915.35
  C 1175.05 885.06 1124.49 877.85 1076.60 898.75
  C 1056.62 907.47 1042.68 917.24 1022.58 931.07
  C 982.08 958.93 933.96 969.82 887.13 953.11
  C 864.44 945.02 846.83 931.52 827.97 917.56
  C 789.36 888.99 744.48 878.57 698.05 893.90
  Q 672.32 902.40 649.95 917.70
  Q 639.84 924.61 629.68 931.42
  C 592.22 956.53 547.05 969.32 502.60 955.64
  Q 476.31 947.54 454.01 930.95
  Q 437.50 918.67 431.69 914.56
  C 386.19 882.40 333.29 878.02 283.19 902.95
  C 264.46 912.28 244.80 926.79 232.42 934.65
  Q 203.35 953.12 172.76 959.02
  C 134.07 966.49 93.67 954.99 61.95 931.30
  C 52.63 924.34 42.56 916.35 33.64 910.75
  Q 17.68 900.73 0.00 894.04
  L 0.00 734.75
  Q 28.45 746.24 55.41 767.84
  Q 70.77 780.13 92.73 789.96
  Q 139.83 811.04 188.76 795.53
  C 213.77 787.61 233.69 774.54 255.87 759.10
  Q 281.08 741.57 310.30 733.01
  C 353.69 720.29 396.12 730.69 432.30 756.21
  C 445.46 765.50 461.77 779.16 479.97 787.86
  C 514.60 804.41 551.10 806.72 587.56 793.32
  C 610.04 785.07 627.79 773.31 648.21 759.23
  C 679.77 737.47 716.16 724.30 754.85 728.35
  C 790.06 732.03 817.22 750.06 844.45 771.04
  Q 858.92 782.18 878.90 790.87
  C 927.49 812.01 977.63 801.23 1020.30 772.73
  Q 1032.26 764.74 1044.24 756.77
  C 1100.14 719.60 1162.08 716.76 1217.24 756.53
  C 1230.91 766.39 1248.10 780.46 1267.45 789.22
  C 1299.81 803.85 1333.53 806.22 1367.59 794.87
  Q 1391.87 786.77 1409.20 775.18
  C 1428.58 762.22 1445.47 749.55 1468.55 739.63
  C 1514.07 720.07 1561.49 724.75 1602.77 752.00
  C 1621.23 764.19 1636.85 778.43 1657.68 788.23
  C 1692.98 804.83 1730.32 806.68 1767.10 792.42
  C 1790.15 783.48 1809.13 770.16 1829.33 756.34
  Q 1845.19 745.48 1868.00 736.59
  Z"
/>
<path fill="#000000" d="
  M 1868.00 896.23
  L 1868.00 1121.00
  L 0.00 1121.00
  L 0.00 894.04
  Q 17.68 900.73 33.64 910.75
  C 42.56 916.35 52.63 924.34 61.95 931.30
  C 93.67 954.99 134.07 966.49 172.76 959.02
  Q 203.35 953.12 232.42 934.65
  C 244.80 926.79 264.46 912.28 283.19 902.95
  C 333.29 878.02 386.19 882.40 431.69 914.56
  Q 437.50 918.67 454.01 930.95
  Q 476.31 947.54 502.60 955.64
  C 547.05 969.32 592.22 956.53 629.68 931.42
  Q 639.84 924.61 649.95 917.70
  Q 672.32 902.40 698.05 893.90
  C 744.48 878.57 789.36 888.99 827.97 917.56
  C 846.83 931.52 864.44 945.02 887.13 953.11
  C 933.96 969.82 982.08 958.93 1022.58 931.07
  C 1042.68 917.24 1056.62 907.47 1076.60 898.75
  C 1124.49 877.85 1175.05 885.06 1216.95 915.35
  Q 1229.99 924.77 1243.15 934.02
  C 1287.10 964.93 1337.90 969.67 1386.78 946.81
  C 1404.10 938.71 1417.36 929.53 1434.35 917.88
  Q 1455.62 903.30 1479.92 894.69
  C 1524.48 878.88 1570.04 887.59 1608.17 914.34
  C 1622.70 924.54 1636.79 936.69 1654.75 945.75
  Q 1713.63 975.45 1775.55 948.27
  C 1795.48 939.52 1810.79 928.59 1827.81 917.09
  Q 1846.67 904.35 1868.00 896.23
  Z"
/>
</svg>
